# xmcd CD database file
#
# Track frame offsets:
#	183
#	16213
#	40000
#	51775
#	58850
#	79238
#	90293
#	106088
#	116813
#	140653
#	152200
#	170945
#	183545
#	201113
#	221220
#	233738
#	249003
#	271985
#	289180
#	305895
#
# Disc length: 4269 seconds
#
# Revision: 10
# Processed by: cddbd v1.5.2PL0 Copyright (c) Steve Scherf et al.
# Submitted via: CDex 1.50
#
DISCID=2310ab14
DTITLE=Amadeus Quartet - Wolfgang Amadeus Mozart - Streichquartette - CD02
DYEAR=1976
DGENRE=Classical
TTITLE0=String Quartet No. 9 in A major, K.169 - I. Molto allegro
TTITLE1=String Quartet No. 9 in A major, K.169 - II. Andante
TTITLE2=String Quartet No. 9 in A major, K.169 - III. Menuetto
TTITLE3=String Quartet No. 9 in A major, K.169 - IV. Rondeaux. Allegro
TTITLE4=String Quartet No. 10 in C major, K.170 - I. Andante
TTITLE5=String Quartet No. 10 in C major, K.170 - II. Menuetto
TTITLE6=String Quartet No. 10 in C major, K.170 - III. Un poco adagio
TTITLE7=String Quartet No. 10 in C major, K.170 - IV. Rondeaux. Allegro
TTITLE8=String Quartet No. 11 in E-flat major, K.171 - I. Adagio - Allegro assai - Adagio
TTITLE9=String Quartet No. 11 in E-flat major, K.171 - II. Menuetto
TTITLE10=String Quartet No. 11 in E-flat major, K.171 - III. Andante
TTITLE11=String Quartet No. 11 in E-flat major, K.171 - IV. Allegro assai
TTITLE12=String Quartet No. 12 in B-flat major, K.172 - I. Allegro spiritoso
TTITLE13=String Quartet No. 12 in B-flat major, K.172 - II. Adagio
TTITLE14=String Quartet No. 12 in B-flat major, K.172 - III. Menuetto
TTITLE15=String Quartet No. 12 in B-flat major, K.172 - IV. Allegro assai
TTITLE16=String Quartet No. 13 in D major, K.173 - I. Allegro ma molto moderato
TTITLE17=String Quartet No. 13 in D major, K.173 - II. (Andante grazioso)
TTITLE18=String Quartet No. 13 in D major, K.173 - III. Menuetto
TTITLE19=String Quartet No. 13 in D major, K.173 - IV. (Allegro)
EXTD=YEAR: 1976
EXTT0=
EXTT1=
EXTT2=
EXTT3=
EXTT4=
EXTT5=
EXTT6=
EXTT7=
EXTT8=
EXTT9=
EXTT10=
EXTT11=
EXTT12=
EXTT13=
EXTT14=
EXTT15=
EXTT16=
EXTT17=
EXTT18=
EXTT19=
PLAYORDER=
